<svg width="40" height="41" viewBox="0 0 40 41" fill="none" xmlns="http://www.w3.org/2000/svg">
<rect x="0.5" y="1" width="39" height="39" rx="3.5" fill="#F6F7FB"/>
<path fill-rule="evenodd" clip-rule="evenodd" d="M7.04321 14.2092C7.07044 14.2749 7.11035 14.3346 7.16066 14.3849C7.21095 14.4352 7.27062 14.4751 7.33633 14.5024C7.40204 14.5296 7.47247 14.5436 7.5436 14.5436C7.61473 14.5436 7.68517 14.5296 7.75088 14.5024C7.81659 14.4751 7.87629 14.4352 7.92658 14.3849L13.502 8.80957L16.369 11.6766C16.4192 11.7269 16.4789 11.7668 16.5447 11.794C16.6104 11.8213 16.6808 11.8353 16.7519 11.8353C16.8231 11.8353 16.8935 11.8213 16.9592 11.794C17.0249 11.7668 17.0846 11.7269 17.1349 11.6766L22.7103 6.10124V8.04362C22.7103 8.18728 22.7674 8.32505 22.8689 8.42664C22.9705 8.52822 23.1083 8.58529 23.252 8.58529C23.3956 8.58529 23.5334 8.52822 23.635 8.42664C23.7366 8.32505 23.7936 8.18728 23.7936 8.04362V4.79362C23.7936 4.72248 23.7796 4.65204 23.7524 4.58631C23.7252 4.52058 23.6853 4.46086 23.635 4.41056C23.5847 4.36026 23.525 4.32036 23.4593 4.29315C23.3935 4.26593 23.3231 4.25193 23.252 4.25195H20.002C19.8583 4.25195 19.7205 4.30902 19.6189 4.4106C19.5174 4.51219 19.4603 4.64996 19.4603 4.79362C19.4603 4.93728 19.5174 5.07505 19.6189 5.17664C19.7205 5.27822 19.8583 5.33529 20.002 5.33529H21.9443L16.752 10.5277L13.8849 7.66063C13.8347 7.61032 13.775 7.57041 13.7092 7.54318C13.6435 7.51595 13.5731 7.50194 13.502 7.50194C13.4308 7.50194 13.3604 7.51595 13.2947 7.54318C13.229 7.57041 13.1693 7.61032 13.119 7.66063L7.16066 13.619C7.11035 13.6692 7.07044 13.7289 7.04321 13.7947C7.01598 13.8604 7.00197 13.9308 7.00197 14.0019C7.00197 14.0731 7.01598 14.1435 7.04321 14.2092ZM17.6765 15.2441C17.778 15.3456 17.8351 15.4833 17.8353 15.627V21.0711C17.8353 21.2148 17.8924 21.3526 17.9939 21.4541C18.0955 21.5557 18.2333 21.6128 18.377 21.6128C18.5206 21.6128 18.6584 21.5557 18.76 21.4541C18.8616 21.3526 18.9186 21.2148 18.9186 21.0711V15.627C18.9181 15.1961 18.7468 14.7831 18.4421 14.4784C18.1375 14.1738 17.7245 14.0024 17.2936 14.002H15.6686C15.2378 14.0024 14.8247 14.1738 14.5201 14.4784C14.2154 14.7831 14.0441 15.1961 14.0436 15.627V27.002H11.877V18.877C11.8765 18.4461 11.7051 18.0331 11.4005 17.7284C11.0958 17.4238 10.6828 17.2524 10.252 17.252H8.62695C8.19612 17.2524 7.78307 17.4238 7.47842 17.7284C7.17378 18.0331 7.00242 18.4461 7.00195 18.877V27.002H5.37695C5.23332 27.0019 5.0956 26.9448 4.99404 26.8432C4.89248 26.7416 4.83538 26.6039 4.83529 26.4603V4.79362C4.83529 4.64996 4.77822 4.51219 4.67664 4.4106C4.57505 4.30902 4.43728 4.25195 4.29362 4.25195C4.14996 4.25195 4.01219 4.30902 3.9106 4.4106C3.80902 4.51219 3.75195 4.64996 3.75195 4.79362V26.4603C3.75242 26.8911 3.92378 27.3042 4.22842 27.6088C4.53307 27.9135 4.94612 28.0848 5.37695 28.0853H16.2103C16.3539 28.0853 16.4917 28.0282 16.5933 27.9266C16.6949 27.8251 16.752 27.6873 16.752 27.5436C16.752 27.4 16.6949 27.2622 16.5933 27.1606C16.4917 27.059 16.3539 27.002 16.2103 27.002H15.127V15.627C15.1271 15.4833 15.1842 15.3456 15.2858 15.2441C15.3873 15.1425 15.525 15.0854 15.6686 15.0853H17.2936C17.4372 15.0854 17.5749 15.1425 17.6765 15.2441ZM10.6348 18.4941C10.7364 18.5956 10.7935 18.7333 10.7936 18.877V27.002H8.08529V18.877C8.08543 18.7333 8.14254 18.5956 8.2441 18.4941C8.34565 18.3925 8.48334 18.3354 8.62695 18.3353H10.252C10.3956 18.3354 10.5333 18.3925 10.6348 18.4941ZM21.0853 18.1761V12.377C21.0858 11.9461 21.2571 11.5331 21.5618 11.2284C21.8664 10.9238 22.2795 10.7524 22.7103 10.752H24.3353C24.7661 10.7524 25.1792 10.9238 25.4838 11.2284C25.7885 11.5331 25.9598 11.9461 25.9603 12.377V16.8457C25.9603 16.9894 25.9032 17.1271 25.8016 17.2287C25.7001 17.3303 25.5623 17.3874 25.4186 17.3874C25.275 17.3874 25.1372 17.3303 25.0356 17.2287C24.934 17.1271 24.877 16.9894 24.877 16.8457V12.377C24.8768 12.2333 24.8197 12.0956 24.7181 11.9941C24.6166 11.8925 24.4789 11.8354 24.3353 11.8353H22.7103C22.5667 11.8354 22.429 11.8925 22.3274 11.9941C22.2259 12.0956 22.1688 12.2333 22.1686 12.377V18.1761C22.1686 18.3197 22.1116 18.4575 22.01 18.5591C21.9084 18.6607 21.7706 18.7177 21.627 18.7177C21.4833 18.7177 21.3455 18.6607 21.2439 18.5591C21.1424 18.4575 21.0853 18.3197 21.0853 18.1761Z" fill="#333333"/>
<path fill-rule="evenodd" clip-rule="evenodd" d="M36.252 27.5436C36.252 29.3649 35.7119 31.1452 34.7001 32.6595C33.6882 34.1738 32.2501 35.3541 30.5675 36.051C28.8849 36.748 27.0334 36.9303 25.2472 36.575C23.4609 36.2197 21.8202 35.3427 20.5323 34.0549C19.2445 32.7671 18.3675 31.1263 18.0122 29.3401C17.6569 27.5538 17.8393 25.7023 18.5362 24.0197C19.2332 22.3371 20.4134 20.899 21.9277 19.8872C23.442 18.8753 25.2224 18.3353 27.0436 18.3353C29.485 18.338 31.8256 19.309 33.5519 21.0354C35.2782 22.7617 36.2492 25.1023 36.252 27.5436ZM33.7993 23.0296C34.6921 24.3658 35.1686 25.9366 35.1686 27.5436C35.1663 29.6978 34.3095 31.763 32.7863 33.2863C31.263 34.8095 29.1978 35.6663 27.0436 35.6686C25.4366 35.6686 23.8658 35.1921 22.5296 34.2993C21.1935 33.4065 20.1521 32.1376 19.5371 30.6529C18.9221 29.1683 18.7612 27.5346 19.0747 25.9585C19.3882 24.3824 20.1621 22.9347 21.2984 21.7984C22.4347 20.6621 23.8824 19.8882 25.4585 19.5747C27.0346 19.2612 28.6683 19.4221 30.1529 20.0371C31.6376 20.6521 32.9065 21.6935 33.7993 23.0296Z" fill="url(#paint0_linear_166_3651)"/>
<path fill-rule="evenodd" clip-rule="evenodd" d="M34.0853 27.5436C34.0853 28.9363 33.6723 30.2978 32.8986 31.4558C32.1248 32.6138 31.025 33.5163 29.7383 34.0493C28.4517 34.5822 27.0358 34.7217 25.6699 34.45C24.3039 34.1783 23.0492 33.5076 22.0644 32.5228C21.0796 31.538 20.409 30.2833 20.1373 28.9174C19.8656 27.5514 20.005 26.1356 20.538 24.8489C21.0709 23.5622 21.9735 22.4624 23.1315 21.6887C24.2895 20.9149 25.6509 20.502 27.0436 20.502C28.9105 20.5041 30.7003 21.2467 32.0204 22.5668C33.3405 23.8869 34.0831 25.6767 34.0853 27.5436ZM31.9978 24.2334C32.6525 25.2132 33.002 26.3652 33.002 27.5436C33.0002 29.1233 32.3718 30.6378 31.2548 31.7548C30.1378 32.8718 28.6233 33.5002 27.0436 33.502C25.8652 33.502 24.7132 33.1525 23.7333 32.4978C22.7535 31.8431 21.9898 30.9125 21.5388 29.8238C21.0879 28.735 20.9699 27.537 21.1998 26.3812C21.4297 25.2254 21.9972 24.1637 22.8304 23.3304C23.6637 22.4972 24.7254 21.9297 25.8812 21.6998C27.037 21.4699 28.235 21.5879 29.3238 22.0388C30.4125 22.4898 31.3431 23.2535 31.9978 24.2334Z" fill="url(#paint1_linear_166_3651)"/>
<path d="M29.4538 25.0687C29.6839 25.0687 29.8704 24.8821 29.8704 24.652C29.8704 24.4219 29.6839 24.2354 29.4538 24.2354H24.9538C24.7237 24.2354 24.5371 24.4219 24.5371 24.652C24.5371 24.8821 24.7237 25.0687 24.9538 25.0687H26.2341C26.8654 25.0687 27.3982 25.4179 27.5989 25.902H24.9538C24.7237 25.902 24.5371 26.0886 24.5371 26.3187C24.5371 26.5488 24.7237 26.7354 24.9538 26.7354H27.5989C27.4994 26.9784 27.3148 27.1889 27.0704 27.3382C26.826 27.4874 26.5339 27.5679 26.2341 27.5687H25.1371C24.8057 27.5687 24.5371 27.8373 24.5371 28.1687V28.5745L27.1199 30.7941C27.2009 30.8637 27.3042 30.902 27.4111 30.902C27.8257 30.902 28.0167 30.3865 27.7023 30.1163L25.7075 28.402H26.2341C26.7926 28.4014 27.3338 28.2352 27.7664 27.9316C28.199 27.628 28.4965 27.2055 28.6089 26.7354H29.4538C29.6839 26.7354 29.8704 26.5488 29.8704 26.3187C29.8704 26.0886 29.6839 25.902 29.4538 25.902H28.6089C28.5345 25.5988 28.3814 25.3139 28.1609 25.0687H29.4538Z" fill="url(#paint2_linear_166_3651)"/>
<rect x="0.5" y="1" width="39" height="39" rx="3.5" stroke="#EAEAF4"/>
<defs>
<linearGradient id="paint0_linear_166_3651" x1="3.75195" y1="4.25195" x2="36.252" y2="36.752" gradientUnits="userSpaceOnUse">
<stop stop-color="#5F61D2"/>
<stop offset="0.4875" stop-color="#936DD1"/>
<stop offset="1" stop-color="#F84D80"/>
</linearGradient>
<linearGradient id="paint1_linear_166_3651" x1="3.75195" y1="4.25195" x2="36.252" y2="36.752" gradientUnits="userSpaceOnUse">
<stop stop-color="#5F61D2"/>
<stop offset="0.4875" stop-color="#936DD1"/>
<stop offset="1" stop-color="#F84D80"/>
</linearGradient>
<linearGradient id="paint2_linear_166_3651" x1="24.5371" y1="24.2354" x2="31.0412" y2="29.4386" gradientUnits="userSpaceOnUse">
<stop stop-color="#5F61D2"/>
<stop offset="0.4875" stop-color="#936DD1"/>
<stop offset="1" stop-color="#F84D80"/>
</linearGradient>
</defs>
</svg>
