<svg width="40" height="40" viewBox="0 0 40 40" fill="none" xmlns="http://www.w3.org/2000/svg">
<rect x="0.5" y="0.5" width="39" height="39" rx="3.5" fill="#F6F7FB"/>
<path d="M26.2441 23.999C26.5891 23.999 26.8691 23.719 26.8691 23.374C26.8691 23.029 26.5891 22.749 26.2441 22.749C25.8991 22.749 25.6191 23.029 25.6191 23.374C25.6191 23.719 25.8991 23.999 26.2441 23.999Z" fill="#333333"/>
<path d="M13.9961 5.49921C13.9961 5.15421 13.7161 4.87421 13.3711 4.87421C13.0261 4.87421 12.7461 5.15421 12.7461 5.49921C12.7461 5.84421 13.0261 6.12421 13.3711 6.12421C13.7161 6.12421 13.9961 5.84421 13.9961 5.49921Z" fill="url(#paint0_linear_166_3663)"/>
<path d="M4.62109 12.7492C4.96609 12.7492 5.24609 12.4692 5.24609 12.1242C5.24609 11.7792 4.96609 11.4992 4.62109 11.4992C4.27609 11.4992 3.99609 11.7792 3.99609 12.1242C3.99609 12.4692 4.27609 12.7492 4.62109 12.7492Z" fill="url(#paint1_linear_166_3663)"/>
<path d="M4.34166 7.68309L5.82209 8.42302L6.56203 9.90346C6.66791 10.1152 6.88434 10.249 7.12109 10.249C7.35784 10.249 7.57428 10.1152 7.68016 9.90346L8.42009 8.42302L9.90053 7.68309C10.1123 7.57721 10.2461 7.36077 10.2461 7.12402C10.2461 6.88727 10.1123 6.67084 9.90053 6.56496L8.42009 5.82502L7.68016 4.34459C7.57428 4.13284 7.35784 3.99902 7.12109 3.99902C6.88434 3.99902 6.66791 4.13284 6.56203 4.34459L5.82209 5.82502L4.34166 6.56496C4.12991 6.67084 3.99609 6.88727 3.99609 7.12402C3.99609 7.36077 4.12991 7.57721 4.34166 7.68309ZM6.56741 6.84996C6.68847 6.78946 6.78659 6.69134 6.84709 6.57027L7.12109 6.02196L7.39516 6.57027C7.45566 6.69134 7.55378 6.78946 7.67484 6.84996L8.22316 7.12402L7.67484 7.39809C7.55378 7.45859 7.45566 7.55671 7.39516 7.67777L7.12109 8.22609L6.84703 7.67777C6.78653 7.55671 6.68841 7.45859 6.56734 7.39809L6.01903 7.12402L6.56741 6.84996Z" fill="url(#paint2_linear_166_3663)"/>
<path d="M35.3711 16.874H34.7461V16.249C34.7461 15.9039 34.4662 15.624 34.1211 15.624C33.776 15.624 33.4961 15.9039 33.4961 16.249V16.874H32.8711C32.526 16.874 32.2461 17.1539 32.2461 17.499C32.2461 17.8441 32.526 18.124 32.8711 18.124H33.4961V18.749C33.4961 19.0941 33.776 19.374 34.1211 19.374C34.4662 19.374 34.7461 19.0941 34.7461 18.749V18.124H35.3711C35.7162 18.124 35.9961 17.8441 35.9961 17.499C35.9961 17.1539 35.7162 16.874 35.3711 16.874Z" fill="url(#paint3_linear_166_3663)"/>
<path d="M27.7171 24.5836C27.4174 24.7549 27.3135 25.1368 27.4849 25.4364C27.9026 26.1666 28.1212 27.3409 28.1212 28.1236C28.1212 28.2781 28.1127 28.4371 28.0961 28.5944C27.9151 30.267 26.4724 31.8724 24.8802 32.1732C24.541 32.2373 24.318 32.5642 24.3821 32.9034C24.4457 33.2405 24.7708 33.4658 25.1123 33.4015C27.3111 32.9861 29.1037 30.9021 29.339 28.7274C29.3604 28.5249 29.3713 28.3218 29.3713 28.1236C29.3713 27.1743 29.1235 25.7833 28.57 24.8158C28.3985 24.5161 28.0168 24.4122 27.7171 24.5836Z" fill="#333333"/>
<path d="M31.8711 8.99902C31.8711 6.24202 29.6281 3.99902 26.8711 3.99902C24.1141 3.99902 21.8711 6.24202 21.8711 8.99902C21.8711 11.756 24.1141 13.999 26.8711 13.999C29.6281 13.999 31.8711 11.756 31.8711 8.99902ZM23.1211 8.99902C23.1211 6.93127 24.8033 5.24902 26.8711 5.24902C28.9388 5.24902 30.6211 6.93127 30.6211 8.99902C30.6211 11.0668 28.9388 12.749 26.8711 12.749C24.8033 12.749 23.1211 11.0668 23.1211 8.99902Z" fill="url(#paint4_linear_166_3663)"/>
<path d="M27.313 11.2084L29.0805 9.44088C29.3246 9.19682 29.3246 8.80107 29.0805 8.55695L27.313 6.78945C27.0689 6.54545 26.6733 6.54545 26.4291 6.78945L24.6616 8.55695C24.4175 8.80101 24.4175 9.19676 24.6616 9.44088L26.4291 11.2084C26.5511 11.3304 26.7111 11.3914 26.871 11.3914C27.0309 11.3914 27.1909 11.3304 27.313 11.2084ZM25.9874 8.99888L26.8711 8.11526L27.7547 8.99888L26.8711 9.88251L25.9874 8.99888Z" fill="url(#paint5_linear_166_3663)"/>
<path fill-rule="evenodd" clip-rule="evenodd" d="M27.498 15.248H21.7158L20.4092 15.248H18.2745H15.4716H13.3369H12.0303H11.248C10.2121 15.248 9.37305 16.0871 9.37305 17.123C9.37305 17.9378 9.89561 18.6325 10.623 18.8905V20.6045C8.30017 22.4538 6.87305 25.331 6.87305 28.123C6.87305 28.4159 6.8888 28.7098 6.9198 28.9965C7.33692 32.8571 10.8147 35.998 14.6724 35.998H24.0737C27.9314 35.998 31.4092 32.8571 31.8263 28.9966C31.8573 28.7098 31.873 28.4159 31.873 28.123C31.873 25.3318 30.4466 22.4543 28.123 20.6045V18.8915C28.8349 18.6404 29.373 17.9562 29.373 17.123C29.373 16.0891 28.5319 15.248 27.498 15.248ZM26.873 18.998V20.248H11.873V18.998H26.873ZM14.998 26.873C15.1648 26.873 15.3217 26.9381 15.4398 27.0563C15.558 27.1744 15.623 27.3313 15.623 27.498V29.373H14.373V27.498C14.373 27.1534 14.6534 26.873 14.998 26.873ZM30.623 28.123C30.623 28.3711 30.6097 28.6197 30.5835 28.8622C30.2329 32.1077 27.3125 34.748 24.0737 34.748H14.6724C11.4335 34.748 8.51317 32.1077 8.16261 28.862C8.13636 28.6197 8.12305 28.3711 8.12305 28.123C8.12305 25.665 9.44636 23.087 11.5088 21.498H14.373V25.7305C13.6456 25.9885 13.123 26.6832 13.123 27.498V29.998C13.123 30.3432 13.4029 30.623 13.748 30.623H16.248C16.5932 30.623 16.873 30.3432 16.873 29.998V27.498C16.873 26.9974 16.678 26.5266 16.3237 26.1724C16.1225 25.9711 15.8836 25.8214 15.623 25.7295V21.498H27.2373C29.2997 23.087 30.623 25.665 30.623 28.123ZM28.123 17.123C28.123 17.468 27.8431 17.748 27.498 17.748H11.248C10.9034 17.748 10.623 17.4677 10.623 17.123C10.623 16.778 10.903 16.498 11.248 16.498H27.498C27.8427 16.498 28.123 16.7784 28.123 17.123Z" fill="#333333"/>
<path fill-rule="evenodd" clip-rule="evenodd" d="M18.2745 15.248L19.0825 14.44C19.3266 14.1959 19.3266 13.8002 19.0825 13.556L17.315 11.7885C17.0709 11.5445 16.6753 11.5445 16.4311 11.7885L14.6636 13.556C14.4195 13.8001 14.4195 14.1959 14.6636 14.44L15.4716 15.248H18.2745ZM16.873 13.1144L15.9894 13.998L16.873 14.8817L17.7567 13.998L16.873 13.1144Z" fill="url(#paint6_linear_166_3663)"/>
<path d="M16.873 8.99805C14.116 8.99805 11.873 11.241 11.873 13.998C11.873 14.4252 11.9259 14.8431 12.0303 15.248H13.3369C13.1953 14.8488 13.123 14.43 13.123 13.998C13.123 11.9303 14.8053 10.248 16.873 10.248C18.9408 10.248 20.623 11.9303 20.623 13.998C20.623 14.43 20.5508 14.8488 20.4092 15.248L21.7158 15.248C21.8202 14.843 21.873 14.4251 21.873 13.998C21.873 11.241 19.63 8.99805 16.873 8.99805Z" fill="url(#paint7_linear_166_3663)"/>
<path d="M35.3711 11.875C35.0261 11.875 34.7461 12.155 34.7461 12.5C34.7461 12.845 35.0261 13.125 35.3711 13.125C35.7161 13.125 35.9961 12.845 35.9961 12.5C35.9961 12.155 35.7161 11.875 35.3711 11.875Z" fill="url(#paint8_linear_166_3663)"/>
<rect x="0.5" y="0.5" width="39" height="39" rx="3.5" stroke="#EAEAF4"/>
<defs>
<linearGradient id="paint0_linear_166_3663" x1="12.7461" y1="4.87421" x2="13.9961" y2="6.12421" gradientUnits="userSpaceOnUse">
<stop stop-color="#5F61D2"/>
<stop offset="0.4875" stop-color="#936DD1"/>
<stop offset="1" stop-color="#F84D80"/>
</linearGradient>
<linearGradient id="paint1_linear_166_3663" x1="3.99609" y1="11.4992" x2="5.24609" y2="12.7492" gradientUnits="userSpaceOnUse">
<stop stop-color="#5F61D2"/>
<stop offset="0.4875" stop-color="#936DD1"/>
<stop offset="1" stop-color="#F84D80"/>
</linearGradient>
<linearGradient id="paint2_linear_166_3663" x1="3.99609" y1="3.99902" x2="10.2461" y2="10.249" gradientUnits="userSpaceOnUse">
<stop stop-color="#5F61D2"/>
<stop offset="0.4875" stop-color="#936DD1"/>
<stop offset="1" stop-color="#F84D80"/>
</linearGradient>
<linearGradient id="paint3_linear_166_3663" x1="32.2461" y1="15.624" x2="35.9961" y2="19.374" gradientUnits="userSpaceOnUse">
<stop stop-color="#5F61D2"/>
<stop offset="0.4875" stop-color="#936DD1"/>
<stop offset="1" stop-color="#F84D80"/>
</linearGradient>
<linearGradient id="paint4_linear_166_3663" x1="21.8711" y1="3.99902" x2="31.8711" y2="13.999" gradientUnits="userSpaceOnUse">
<stop stop-color="#5F61D2"/>
<stop offset="0.4875" stop-color="#936DD1"/>
<stop offset="1" stop-color="#F84D80"/>
</linearGradient>
<linearGradient id="paint5_linear_166_3663" x1="24.4785" y1="6.60645" x2="29.2635" y2="11.3915" gradientUnits="userSpaceOnUse">
<stop stop-color="#5F61D2"/>
<stop offset="0.4875" stop-color="#936DD1"/>
<stop offset="1" stop-color="#F84D80"/>
</linearGradient>
<linearGradient id="paint6_linear_166_3663" x1="6.87305" y1="8.99805" x2="33.7933" y2="33.9242" gradientUnits="userSpaceOnUse">
<stop stop-color="#5F61D2"/>
<stop offset="0.4875" stop-color="#936DD1"/>
<stop offset="1" stop-color="#F84D80"/>
</linearGradient>
<linearGradient id="paint7_linear_166_3663" x1="6.87305" y1="8.99805" x2="33.7933" y2="33.9242" gradientUnits="userSpaceOnUse">
<stop stop-color="#5F61D2"/>
<stop offset="0.4875" stop-color="#936DD1"/>
<stop offset="1" stop-color="#F84D80"/>
</linearGradient>
<linearGradient id="paint8_linear_166_3663" x1="34.7461" y1="11.875" x2="35.9961" y2="13.125" gradientUnits="userSpaceOnUse">
<stop stop-color="#5F61D2"/>
<stop offset="0.4875" stop-color="#936DD1"/>
<stop offset="1" stop-color="#F84D80"/>
</linearGradient>
</defs>
</svg>
