<svg width="40" height="41" viewBox="0 0 40 41" fill="none" xmlns="http://www.w3.org/2000/svg">
<rect x="0.5" y="1" width="39" height="39" rx="3.5" fill="#F6F7FB"/>
<path opacity="0.7" d="M12 10L12 32C12 33.1046 12.8954 34 14 34L26 34C27.1046 34 28 33.1046 28 32L28 10C28 8.89543 27.1046 8 26 8L14 8C12.8954 8 12 8.89543 12 10Z" fill="#5F61D2"/>
<path d="M12 10L12 32C12 33.1046 12.8954 34 14 34L26 34C27.1046 34 28 33.1046 28 32L28 10C28 8.89543 27.1046 8 26 8L14 8C12.8954 8 12 8.89543 12 10Z" stroke="#333333" stroke-width="2" stroke-linecap="round" stroke-linejoin="round"/>
<path d="M20 28C19.1716 28 18.5 28.6716 18.5 29.5C18.5 30.3284 19.1716 31 20 31C20.8284 31 21.5 30.3284 21.5 29.5C21.5 28.6716 20.8284 28 20 28Z" fill="#333333"/>
<rect x="0.5" y="1" width="39" height="39" rx="3.5" stroke="#EAEAF4"/>
</svg>
