<svg width="6" height="9" viewBox="0 0 6 9" fill="none" xmlns="http://www.w3.org/2000/svg">
<path d="M5.35743 3.90874L1.8241 0.375405C1.74663 0.297298 1.65446 0.235302 1.55291 0.192995C1.45136 0.150688 1.34244 0.128906 1.23243 0.128906C1.12242 0.128906 1.0135 0.150688 0.911951 0.192995C0.810401 0.235302 0.718234 0.297298 0.640765 0.375405C0.485555 0.53154 0.398438 0.74275 0.398438 0.962905C0.398438 1.18306 0.485555 1.39427 0.640765 1.5504L3.59076 4.50041L0.640765 7.45041C0.485555 7.60654 0.398438 7.81775 0.398438 8.03791C0.398438 8.25806 0.485555 8.46927 0.640765 8.62541C0.718631 8.70264 0.810978 8.76374 0.912509 8.80521C1.01404 8.84669 1.12276 8.86771 1.23243 8.86707C1.3421 8.86771 1.45082 8.84669 1.55235 8.80521C1.65388 8.76374 1.74623 8.70264 1.8241 8.62541L5.35743 5.09207C5.43554 5.0146 5.49753 4.92244 5.53984 4.82089C5.58215 4.71934 5.60393 4.61041 5.60393 4.50041C5.60393 4.3904 5.58215 4.28147 5.53984 4.17992C5.49753 4.07838 5.43554 3.98621 5.35743 3.90874Z" fill="#333333"/>
</svg>
