<svg width="40" height="40" viewBox="0 0 40 40" fill="none" xmlns="http://www.w3.org/2000/svg">
<rect x="0.5" y="0.499847" width="39" height="39" rx="3.5" fill="#F6F7FB"/>
<path d="M33.5397 6.99985H30.8314V5.91651C30.8314 5.34188 30.6031 4.79078 30.1968 4.38445C29.7904 3.97812 29.2393 3.74985 28.6647 3.74985C28.0901 3.74985 27.539 3.97812 27.1327 4.38445C26.7263 4.79078 26.498 5.34188 26.498 5.91651V6.99985H13.498V5.91651C13.498 5.34188 13.2698 4.79078 12.8634 4.38445C12.4571 3.97812 11.906 3.74985 11.3314 3.74985C10.7567 3.74985 10.2056 3.97812 9.79932 4.38445C9.39299 4.79078 9.16471 5.34188 9.16471 5.91651V6.99985H6.45638C5.73809 6.99985 5.04921 7.28519 4.5413 7.7931C4.03339 8.30101 3.74805 8.98989 3.74805 9.70818V31.3748C3.74805 32.0931 4.03339 32.782 4.5413 33.2899C5.04921 33.7978 5.73809 34.0832 6.45638 34.0832H21.623C21.7667 34.0832 21.9045 34.0261 22.0061 33.9245C22.1076 33.823 22.1647 33.6852 22.1647 33.5415C22.1647 33.3979 22.1076 33.2601 22.0061 33.1585C21.9045 33.0569 21.7667 32.9998 21.623 32.9998H6.45638C6.0258 32.9986 5.61322 32.8269 5.30875 32.5225C5.00428 32.218 4.83267 31.8054 4.83138 31.3748V14.5832H35.1647V23.2498C35.1647 23.3935 35.2218 23.5313 35.3234 23.6329C35.4249 23.7344 35.5627 23.7915 35.7064 23.7915C35.85 23.7915 35.9878 23.7344 36.0894 23.6329C36.191 23.5313 36.248 23.3935 36.248 23.2498V9.70818C36.248 8.98989 35.9627 8.30101 35.4548 7.7931C34.9469 7.28519 34.258 6.99985 33.5397 6.99985ZM27.5814 5.91651C27.5814 5.6292 27.6955 5.35365 27.8987 5.15048C28.1018 4.94732 28.3774 4.83318 28.6647 4.83318C28.952 4.83318 29.2276 4.94732 29.4307 5.15048C29.6339 5.35365 29.748 5.6292 29.748 5.91651V9.16651C29.748 9.45383 29.6339 9.72938 29.4307 9.93255C29.2276 10.1357 28.952 10.2498 28.6647 10.2498C28.3774 10.2498 28.1018 10.1357 27.8987 9.93255C27.6955 9.72938 27.5814 9.45383 27.5814 9.16651V5.91651ZM10.248 5.91651C10.248 5.6292 10.3622 5.35365 10.5653 5.15048C10.7685 4.94732 11.0441 4.83318 11.3314 4.83318C11.6187 4.83318 11.8942 4.94732 12.0974 5.15048C12.3006 5.35365 12.4147 5.6292 12.4147 5.91651V9.16651C12.4147 9.45383 12.3006 9.72938 12.0974 9.93255C11.8942 10.1357 11.6187 10.2498 11.3314 10.2498C11.0441 10.2498 10.7685 10.1357 10.5653 9.93255C10.3622 9.72938 10.248 9.45383 10.248 9.16651V5.91651ZM35.1647 13.4998H4.83138V9.70818C4.83267 9.2776 5.00428 8.86502 5.30875 8.56055C5.61322 8.25608 6.0258 8.08447 6.45638 8.08318H9.16471V9.16651C9.16471 9.74115 9.39299 10.2923 9.79932 10.6986C10.2056 11.1049 10.7567 11.3332 11.3314 11.3332C11.906 11.3332 12.4571 11.1049 12.8634 10.6986C13.2698 10.2923 13.498 9.74115 13.498 9.16651V8.08318H26.498V9.16651C26.498 9.74115 26.7263 10.2923 27.1327 10.6986C27.539 11.1049 28.0901 11.3332 28.6647 11.3332C29.2393 11.3332 29.7904 11.1049 30.1968 10.6986C30.6031 10.2923 30.8314 9.74115 30.8314 9.16651V8.08318H33.5397C33.9703 8.08447 34.3829 8.25608 34.6873 8.56055C34.9918 8.86502 35.1634 9.2776 35.1647 9.70818V13.4998Z" fill="#333333"/>
<path d="M34.0823 33.0008H31.9156C31.7719 33.0008 31.6342 33.0579 31.5326 33.1595C31.431 33.261 31.3739 33.3988 31.3739 33.5425C31.3739 33.6861 31.431 33.8239 31.5326 33.9255C31.6342 34.0271 31.7719 34.0841 31.9156 34.0841H32.6235C31.5599 34.8275 30.2826 35.2033 28.9858 35.1544C27.689 35.1055 26.4437 34.6345 25.439 33.8131C24.4344 32.9918 23.7253 31.8649 23.4197 30.6037C23.114 29.3425 23.2285 28.016 23.7456 26.8258C23.8031 26.6941 23.8059 26.5449 23.7534 26.4111C23.7008 26.2773 23.5973 26.1699 23.4656 26.1124C23.3339 26.055 23.1847 26.0522 23.0509 26.1047C22.9171 26.1572 22.8097 26.2607 22.7522 26.3925C22.1279 27.8281 21.9997 29.4308 22.388 30.9473C22.7763 32.4639 23.6588 33.8078 24.8962 34.7667C26.1336 35.7257 27.6553 36.2449 29.2208 36.2425C30.7862 36.24 32.3062 35.7159 33.5406 34.7531V35.7091C33.5406 35.8528 33.5977 35.9906 33.6992 36.0922C33.8008 36.1937 33.9386 36.2508 34.0823 36.2508C34.2259 36.2508 34.3637 36.1937 34.4653 36.0922C34.5669 35.9906 34.6239 35.8528 34.6239 35.7091V33.5425C34.6239 33.3988 34.5669 33.261 34.4653 33.1595C34.3637 33.0579 34.2259 33.0008 34.0823 33.0008Z" fill="url(#paint0_linear_166_3704)"/>
<path d="M24.8743 23.6655V22.7095C24.8743 22.5658 24.8173 22.428 24.7157 22.3265C24.6141 22.2249 24.4763 22.1678 24.3327 22.1678C24.189 22.1678 24.0512 22.2249 23.9497 22.3265C23.8481 22.428 23.791 22.5658 23.791 22.7095V24.8761C23.791 25.0198 23.8481 25.1576 23.9497 25.2592C24.0512 25.3607 24.189 25.4178 24.3327 25.4178H26.4993C26.643 25.4178 26.7808 25.3607 26.8824 25.2592C26.9839 25.1576 27.041 25.0198 27.041 24.8761C27.041 24.7325 26.9839 24.5947 26.8824 24.4931C26.7808 24.3916 26.643 24.3345 26.4993 24.3345H25.7914C26.8627 23.5862 28.1503 23.2108 29.4559 23.2662C30.7615 23.3216 32.0127 23.8047 33.0168 24.641C34.0208 25.4774 34.7221 26.6206 35.0126 27.8947C35.3031 29.1688 35.1667 30.503 34.6244 31.6919C34.5947 31.7566 34.5781 31.8265 34.5754 31.8976C34.5727 31.9686 34.5841 32.0396 34.6088 32.1063C34.6336 32.173 34.6712 32.2341 34.7196 32.2863C34.768 32.3384 34.8262 32.3805 34.8909 32.4102C34.9555 32.4399 35.0254 32.4565 35.0965 32.4591C35.1676 32.4618 35.2385 32.4504 35.3052 32.4257C35.3719 32.4009 35.433 32.3633 35.4852 32.3149C35.5373 32.2665 35.5794 32.2084 35.6091 32.1437C36.2637 30.7099 36.4183 29.0979 36.0482 27.5659C35.6781 26.0338 34.8047 24.6701 33.5678 23.6933C32.3309 22.7164 30.802 22.1827 29.2259 22.1777C27.6497 22.1726 26.1175 22.6965 24.8743 23.6655Z" fill="url(#paint1_linear_166_3704)"/>
<path d="M18.9134 18.3771C18.9134 18.0898 18.7993 17.8143 18.5961 17.6111C18.3929 17.4079 18.1174 17.2938 17.8301 17.2938H15.6634C15.3761 17.2938 15.1005 17.4079 14.8974 17.6111C14.6942 17.8143 14.5801 18.0898 14.5801 18.3771V20.0021C14.5801 20.2894 14.6942 20.565 14.8974 20.7682C15.1005 20.9713 15.3761 21.0855 15.6634 21.0855H17.8301C18.1174 21.0855 18.3929 20.9713 18.5961 20.7682C18.7993 20.565 18.9134 20.2894 18.9134 20.0021V18.3771ZM15.6634 20.0021V18.3771H17.8301V20.0021H15.6634Z" fill="#333333"/>
<path d="M25.4134 20.0021V18.3771C25.4134 18.0898 25.2993 17.8143 25.0961 17.6111C24.8929 17.4079 24.6174 17.2938 24.3301 17.2938H22.1634C21.8761 17.2938 21.6005 17.4079 21.3974 17.6111C21.1942 17.8143 21.0801 18.0898 21.0801 18.3771V20.0021C21.0801 20.2894 21.1942 20.565 21.3974 20.7682C21.6005 20.9713 21.8761 21.0855 22.1634 21.0855H24.3301C24.6174 21.0855 24.8929 20.9713 25.0961 20.7682C25.2993 20.565 25.4134 20.2894 25.4134 20.0021ZM22.1634 18.3771H24.3301V20.0021H22.1634V18.3771Z" fill="#333333"/>
<path d="M12.4154 18.3771C12.4154 18.0898 12.3012 17.8143 12.0981 17.6111C11.8949 17.4079 11.6193 17.2938 11.332 17.2938H9.16536C8.87805 17.2938 8.6025 17.4079 8.39933 17.6111C8.19617 17.8143 8.08203 18.0898 8.08203 18.3771V20.0021C8.08203 20.2894 8.19617 20.565 8.39933 20.7682C8.6025 20.9713 8.87805 21.0855 9.16536 21.0855H11.332C11.6193 21.0855 11.8949 20.9713 12.0981 20.7682C12.3012 20.565 12.4154 20.2894 12.4154 20.0021V18.3771ZM9.16536 20.0021V18.3771H11.332V20.0021H9.16536Z" fill="#333333"/>
<path d="M30.8301 21.0855C31.1174 21.0855 31.3929 20.9713 31.5961 20.7682C31.7993 20.565 31.9134 20.2894 31.9134 20.0021V18.3771C31.9134 18.0898 31.7993 17.8143 31.5961 17.6111C31.3929 17.4079 31.1174 17.2938 30.8301 17.2938H28.6634C28.3761 17.2938 28.1005 17.4079 27.8974 17.6111C27.6942 17.8143 27.5801 18.0898 27.5801 18.3771V20.0021C27.5801 20.2894 27.6942 20.565 27.8974 20.7682C28.1005 20.9713 28.3761 21.0855 28.6634 21.0855H30.8301ZM28.6634 18.3771H30.8301V20.0021H28.6634V18.3771Z" fill="#333333"/>
<path d="M18.9134 23.2513C18.9134 22.964 18.7993 22.6885 18.5961 22.4853C18.3929 22.2821 18.1174 22.168 17.8301 22.168H15.6634C15.3761 22.168 15.1005 22.2821 14.8974 22.4853C14.6942 22.6885 14.5801 22.964 14.5801 23.2513V24.8763C14.5801 25.1637 14.6942 25.4392 14.8974 25.6424C15.1005 25.8455 15.3761 25.9597 15.6634 25.9597H17.8301C18.1174 25.9597 18.3929 25.8455 18.5961 25.6424C18.7993 25.4392 18.9134 25.1637 18.9134 24.8763V23.2513ZM15.6634 24.8763V23.2513H17.8301V24.8763H15.6634Z" fill="#333333"/>
<path d="M12.4154 23.2513C12.4154 22.964 12.3012 22.6885 12.0981 22.4853C11.8949 22.2821 11.6193 22.168 11.332 22.168H9.16536C8.87805 22.168 8.6025 22.2821 8.39933 22.4853C8.19617 22.6885 8.08203 22.964 8.08203 23.2513V24.8763C8.08203 25.1637 8.19617 25.4392 8.39933 25.6424C8.6025 25.8455 8.87805 25.9597 9.16536 25.9597H11.332C11.6193 25.9597 11.8949 25.8455 12.0981 25.6424C12.3012 25.4392 12.4154 25.1637 12.4154 24.8763V23.2513ZM9.16536 24.8763V23.2513H11.332V24.8763H9.16536Z" fill="#333333"/>
<path d="M17.8301 27.0428H15.6634C15.3761 27.0428 15.1005 27.157 14.8974 27.3601C14.6942 27.5633 14.5801 27.8388 14.5801 28.1261V29.7511C14.5801 30.0385 14.6942 30.314 14.8974 30.5172C15.1005 30.7203 15.3761 30.8345 15.6634 30.8345H17.8301C18.1174 30.8345 18.3929 30.7203 18.5961 30.5172C18.7993 30.314 18.9134 30.0385 18.9134 29.7511V28.1261C18.9134 27.8388 18.7993 27.5633 18.5961 27.3601C18.3929 27.157 18.1174 27.0428 17.8301 27.0428ZM15.6634 29.7511V28.1261H17.8301V29.7511H15.6634Z" fill="#333333"/>
<path d="M11.332 27.0428H9.16536C8.87805 27.0428 8.6025 27.157 8.39933 27.3601C8.19617 27.5633 8.08203 27.8388 8.08203 28.1261V29.7511C8.08203 30.0385 8.19617 30.314 8.39933 30.5172C8.6025 30.7203 8.87805 30.8345 9.16536 30.8345H11.332C11.6193 30.8345 11.8949 30.7203 12.0981 30.5172C12.3012 30.314 12.4154 30.0385 12.4154 29.7511V28.1261C12.4154 27.8388 12.3012 27.5633 12.0981 27.3601C11.8949 27.157 11.6193 27.0428 11.332 27.0428ZM9.16536 29.7511V28.1261H11.332V29.7511H9.16536Z" fill="#333333"/>
<path d="M31.8483 26.8342C32.0784 26.8342 32.265 26.6476 32.265 26.4175C32.265 26.1874 32.0784 26.0008 31.8483 26.0008H27.3483C27.1182 26.0008 26.9316 26.1874 26.9316 26.4175C26.9316 26.6476 27.1182 26.8342 27.3483 26.8342H28.6286C29.2599 26.8342 29.7927 27.1833 29.9935 27.6675H27.3483C27.1182 27.6675 26.9316 27.854 26.9316 28.0842C26.9316 28.3143 27.1182 28.5008 27.3483 28.5008H29.9935C29.8939 28.7438 29.7093 28.9544 29.4649 29.1036C29.2205 29.2528 28.9284 29.3334 28.6286 29.3342H27.5316C27.2003 29.3342 26.9316 29.6028 26.9316 29.9342V30.34L29.5144 32.5595C29.5954 32.6292 29.6988 32.6675 29.8056 32.6675C30.2202 32.6675 30.4113 32.152 30.0969 31.8818L28.1021 30.1675H28.6286C29.1871 30.1668 29.7283 30.0007 30.1609 29.6971C30.5935 29.3935 30.8911 28.971 31.0034 28.5008H31.8483C32.0784 28.5008 32.265 28.3143 32.265 28.0842C32.265 27.854 32.0784 27.6675 31.8483 27.6675H31.0034C30.9291 27.3642 30.7759 27.0794 30.5554 26.8342H31.8483Z" fill="url(#paint2_linear_166_3704)"/>
<rect x="0.5" y="0.499847" width="39" height="39" rx="3.5" stroke="#EAEAF4"/>
<defs>
<linearGradient id="paint0_linear_166_3704" x1="22.168" y1="26.0672" x2="32.1484" y2="38.2747" gradientUnits="userSpaceOnUse">
<stop stop-color="#5F61D2"/>
<stop offset="0.4875" stop-color="#936DD1"/>
<stop offset="1" stop-color="#F84D80"/>
</linearGradient>
<linearGradient id="paint1_linear_166_3704" x1="23.791" y1="22.1678" x2="33.8984" y2="34.3988" gradientUnits="userSpaceOnUse">
<stop stop-color="#5F61D2"/>
<stop offset="0.4875" stop-color="#936DD1"/>
<stop offset="1" stop-color="#F84D80"/>
</linearGradient>
<linearGradient id="paint2_linear_166_3704" x1="26.9316" y1="26.0008" x2="33.4357" y2="31.2041" gradientUnits="userSpaceOnUse">
<stop stop-color="#5F61D2"/>
<stop offset="0.4875" stop-color="#936DD1"/>
<stop offset="1" stop-color="#F84D80"/>
</linearGradient>
</defs>
</svg>
